<?xml version="1.0" ?><svg data-name="Layer 1" id="Layer_1" viewBox="0 0 512 512" xmlns="http://www.w3.org/2000/svg"><path d="M389.71,93.53a31.25,31.25,0,0,0-19.46,6.8,31.34,31.34,0,0,0-52.81-22.25,31.38,31.38,0,0,0-60.8,10.27A31.37,31.37,0,0,0,205.76,113V262.45c-7.77-6.45-21-16.82-43.29-33.16-17.85-13.07-33.88-17.74-47.68-13.83-16.7,4.73-23.2,20.32-23.47,21a6,6,0,0,0,1.2,6.38c.59.62,59.19,62.76,70.42,105.21,10.55,39.86,46.95,61.51,58.6,67.55v32.84a6,6,0,0,0,12,0V411.84a6,6,0,0,0-3.55-5.47c-.45-.2-44.59-20.36-55.45-61.4-10.62-40.13-57.83-93.54-70.33-107.2,2.23-3.45,6.7-8.76,13.87-10.78,10.05-2.85,22.61,1.18,37.32,12,39.72,29.09,49.77,38.67,51.56,40.49A5.81,5.81,0,0,0,209,281.2l.16.09a5,5,0,0,0,.64.25,4.61,4.61,0,0,0,.63.2l.23,0a5.93,5.93,0,0,0,7.06-6.82V113a19.44,19.44,0,0,1,38.87,0V249.38a6,6,0,1,0,12,0V89a19.43,19.43,0,0,1,38.86,0V249.38a6,6,0,0,0,12,0V101a19.44,19.44,0,0,1,38.87,0v148.4a6,6,0,0,0,12,0V124.94a19.44,19.44,0,0,1,38.87,0V345.06c0,20.7-11.56,39.2-30.26,47.48A6,6,0,0,0,375.3,398v50.39a6,6,0,0,0,12,0V401.85c20.66-10.46,33.85-32.42,33.85-56.79V124.94A31.45,31.45,0,0,0,389.71,93.53Z"/></svg>